<?xml version="1.0" encoding="UTF-8"?>
<svg id="Layer_1" data-name="Layer 1" xmlns="http://www.w3.org/2000/svg" viewBox="0 0 285 182">
  <defs>
    <style>
      .cls-1, .cls-2 {
        fill: #d5364b;
      }

      .cls-3 {
        fill: #231f20;
      }

      .cls-4 {
        fill: #9aca3c;
      }

      .cls-2 {
        stroke: #231f20;
        stroke-miterlimit: 10;
        stroke-width: 3px;
      }
    </style>
  </defs>
  <rect class="cls-2" x="1.5" y="1.5" width="282" height="179" rx="12.76" ry="12.76"/>
  <g>
    <path class="cls-3" d="m209.07,83.01c-.32-.52-.88-.83-1.49-.83h-10.64c-.17,0-.34.02-.49.07-.16-.05-.32-.07-.49-.07h-9.46c-.06,0-.11,0-.17,0-.09-.01-.17-.02-.26-.02h-4.14c-.33,0-.65.09-.93.27l-1.71,1.08c-.04-.18-.11-.35-.21-.51-.32-.52-.88-.83-1.49-.83h-3.15c-.63,0-1.21.34-1.52.88-.64-.56-1.5-.88-2.48-.88h-7.82c-.66,0-1.26.37-1.55.95l-.41.8h-.87v-.05c-.03-.95-.8-1.7-1.75-1.7h-3.74c-.45,0-.88.17-1.21.48l-1.32,1.26h-.3c0-.32-.08-.64-.26-.92-.32-.52-.88-.83-1.49-.83h-3.94c-.39,0-.76.13-1.07.37l-1.8,1.39h-1.63l-.13-.47c-.21-.76-.9-1.29-1.68-1.29h-3.94c-.66,0-1.26.37-1.55.95l-.41.81h-2.55c0-.32-.08-.63-.25-.91-.32-.52-.88-.83-1.49-.83h-9.46c-.3,0-.58.08-.84.21-.25-.14-.54-.21-.84-.21h-9.46c-.62,0-1.2.33-1.51.87-.64-.57-1.5-.88-2.48-.88h-7.82c-.16,0-.31.02-.46.06-.14-.04-.29-.06-.44-.06h-9.85c-.66,0-1.26.37-1.55.95l-4.12,8.08c-.16.32-.22.68-.17,1.03-.31.17-.56.42-.73.74l-4.12,8.08c-.28.54-.25,1.19.07,1.7s.88.83,1.49.83h3.15c.5,0,6.29.13,9.08-.07.16.05.32.07.49.07h3.55c.29,0,2.86,0,4.84-.07.15.04.32.07.48.07h3.55c.26,0,2.3,0,4.1-.05.11.02.22.04.34.04h3.15c.66,0,1.26-.37,1.55-.95l.23-.45h.82s.1.27.1.27c.25.69.91,1.14,1.64,1.14h3.55c.66,0,1.26-.37,1.55-.95l.19-.38,2.58.02c.04.17.11.33.2.49.32.52.88.83,1.49.83h7.24c1.27,0,2.62-.45,3.85-1.2l1.85.02s.02.06.03.09c.27.66.91,1.1,1.62,1.1h3.55c.47,0,.92-.19,1.25-.53l.57-.59,1.88.02c.08.2.2.39.35.55.33.35.79.54,1.26.54h3.55c.47,0,.92-.19,1.25-.53.14-.15.26-.32.34-.51h1.26c.03.07.06.13.09.19.32.52.88.83,1.49.83h3.15c.65,0,1.25-.37,1.55-.95h1.24c.3.58.89.95,1.54.95h3.55c.63,0,1.2-.34,1.51-.88l4.89.05c1.45,1.01,3.52,1.02,4.32,1.03.77,0,1.74-.08,2.8-.39.31.25.69.39,1.09.39h1.57c.64,0,1.23-.36,1.54-.92l5.06.05c1.43.87,3.34.87,4.09.87h0c4.38,0,7.44-1.66,9.07-4.9l.3-.59c.89-1.75.97-3.24.23-4.44-.3-.49-.71-.87-1.17-1.15l3.15-4.48h1.72c.66,0,1.26-.37,1.55-.95l1.31-2.56c.28-.54.25-1.19-.07-1.7Z"/>
    <polygon class="cls-4" points="86.14 83.92 96 83.92 94.69 86.48 87.99 86.48 87.49 87.47 93.4 87.47 92.19 89.83 86.28 89.83 85.17 92 82.02 92 86.14 83.92"/>
    <g>
      <path class="cls-4" d="m95.93,91.99h-3.15l4.12-8.08h7.78c1.67-.02,2.37,1.38,1.5,3.05-.31.61-.75,1.16-1.33,1.65-.57.49-1.18.86-1.84,1.11l.61,2.27h-3.35l-.51-1.97h-2.81l-1.01,1.97Z"/>
      <path class="cls-3" d="m98.14,87.65h3.84c.19,0,.39-.07.59-.2s.36-.3.45-.49c.2-.38.05-.69-.34-.69h-3.84l-.7,1.38Z"/>
    </g>
    <polygon class="cls-4" points="115.1 89.93 108.8 89.93 109.32 88.89 115.63 88.89 116.58 87.02 110.28 87.02 110.81 85.99 117.11 85.99 118.17 83.92 108.71 83.92 104.59 92 114.04 92 115.1 89.93"/>
    <polygon class="cls-4" points="115.72 92 125.17 92 126.23 89.93 119.92 89.93 120.45 88.89 126.76 88.89 127.71 87.02 121.4 87.02 121.93 85.99 128.24 85.99 129.29 83.92 119.84 83.92 115.72 92"/>
    <polygon class="cls-4" points="145.62 91.99 149.74 83.91 145.8 83.91 140.58 87.95 139.49 83.91 135.55 83.91 131.43 91.99 134.58 91.99 136.78 87.68 137.73 91.99 139.31 91.99 144.66 87.68 142.47 91.99 145.62 91.99"/>
    <g>
      <polygon class="cls-4" points="158.05 83.92 158.26 92 154.72 92 154.78 90.62 150.74 90.62 149.4 92 145.85 92 154.31 83.92 158.05 83.92"/>
      <polygon class="cls-3" points="154.88 88.65 154.99 86.26 152.66 88.65 154.88 88.65"/>
    </g>
    <g>
      <path class="cls-4" d="m161.66,91.99h-3.15l4.12-8.08h7.78c1.67-.02,2.37,1.38,1.5,3.05-.31.61-.75,1.16-1.33,1.65-.57.49-1.18.86-1.84,1.11l.61,2.27h-3.35l-.51-1.97h-2.81l-1.01,1.97Z"/>
      <path class="cls-3" d="m163.87,87.65h3.84c.19,0,.39-.07.59-.2s.36-.3.45-.49c.2-.38.05-.69-.34-.69h-3.84l-.7,1.38Z"/>
    </g>
    <polygon class="cls-4" points="181.95 91.99 179.82 87.95 186.07 83.91 181.93 83.91 177.56 86.67 176.19 86.67 177.59 83.91 174.44 83.91 170.32 91.99 173.47 91.99 174.88 89.23 176.26 89.23 177.81 91.99 181.95 91.99"/>
    <polygon class="cls-4" points="182.38 92 191.84 92 192.89 89.93 186.59 89.93 187.12 88.89 193.42 88.89 194.37 87.02 188.07 87.02 188.6 85.99 194.9 85.99 195.96 83.92 186.5 83.92 182.38 92"/>
    <polygon class="cls-4" points="196.57 92 199.72 92 202.53 86.48 206.28 86.48 207.58 83.92 196.94 83.92 195.64 86.48 199.38 86.48 196.57 92"/>
    <polygon class="cls-1" points="77 101.85 80.15 101.85 81.26 99.68 87.17 99.68 88.38 97.32 82.46 97.32 82.96 96.33 89.67 96.33 90.97 93.77 81.12 93.77 77 101.85"/>
    <g>
      <polygon class="cls-1" points="101.92 93.77 102.13 101.85 98.59 101.85 98.65 100.47 94.61 100.47 93.27 101.85 89.72 101.85 98.18 93.77 101.92 93.77"/>
      <polygon class="cls-3" points="98.75 98.49 98.86 96.11 96.53 98.49 98.75 98.49"/>
    </g>
    <polygon class="cls-1" points="116.38 98.04 115.02 93.76 110.69 93.76 106.57 101.84 109.72 101.84 112.23 96.9 114.06 101.84 117.6 101.84 121.72 93.76 118.57 93.76 116.38 98.04"/>
    <g>
      <path class="cls-1" d="m136.71,97.81c-1.1,2.19-3.71,4.07-5.91,4.04h-7.19l4.12-8.08h7.19c2.23-.03,2.93,1.83,1.79,4.04Z"/>
      <path class="cls-3" d="m133.56,97.81c.42-.82.29-1.48-.53-1.48h-3.45l-1.51,2.96h3.45c.82,0,1.62-.67,2.03-1.48Z"/>
    </g>
    <g>
      <polygon class="cls-1" points="150.41 93.77 150.63 101.85 147.08 101.85 147.15 100.47 143.1 100.47 141.76 101.85 138.21 101.85 146.67 93.77 150.41 93.77"/>
      <polygon class="cls-3" points="147.24 98.49 147.35 96.11 145.02 98.49 147.24 98.49"/>
    </g>
    <polygon class="cls-1" points="164.88 98.04 163.51 93.76 159.18 93.76 155.06 101.84 158.21 101.84 160.73 96.9 162.55 101.84 166.09 101.84 170.22 93.76 167.06 93.76 164.88 98.04"/>
    <path class="cls-1" d="m179.83,96.12c.46,0,.86.05,1.18.14s.52.28.58.55h3.35c.91-2.49-1-3.25-3.81-3.25-3.04,0-5.98.88-7.53,3.94l-.3.59c-1.57,3.05.47,3.93,3.51,3.94,1.37,0,2.96-.33,4.37-1.26l-.48,1.26h1.57l2.36-4.63h-5.49l-.71,1.38h2.54c-.79.61-1.62.69-2.86.69-1.28-.02-2.26-.25-1.56-1.57l.1-.2c.65-1.32,1.87-1.56,3.17-1.57Z"/>
    <g>
      <path class="cls-1" d="m200.79,97.5l-.3.59c-1.55,3.05-4.49,3.94-7.52,3.94-3.04,0-5.08-.89-3.51-3.94l.3-.59c1.55-3.06,4.49-3.94,7.53-3.94,3.04,0,5.06.89,3.5,3.94Z"/>
      <path class="cls-3" d="m197.54,97.7c.69-1.32-.28-1.56-1.56-1.57-1.3.02-2.52.26-3.17,1.57l-.1.2c-.69,1.32.28,1.56,1.56,1.58,1.3-.02,2.51-.26,3.17-1.58l.1-.2Z"/>
    </g>
  </g>
</svg>