<?xml version="1.0" encoding="UTF-8"?>
<svg id="Layer_1" data-name="Layer 1" xmlns="http://www.w3.org/2000/svg" viewBox="0 0 284 181">
  <defs>
    <style>
      .cls-1 {
        fill: #d1d3d4;
      }

      .cls-2 {
        fill: #231f20;
      }

      .cls-3 {
        fill: none;
        stroke-width: .75px;
      }

      .cls-3, .cls-4, .cls-5 {
        stroke: #231f20;
        stroke-miterlimit: 10;
      }

      .cls-4 {
        fill: #d5364b;
      }

      .cls-4, .cls-5 {
        stroke-width: 3px;
      }

      .cls-5 {
        fill: #9aca3c;
      }
    </style>
  </defs>
  <rect class="cls-4" x="1" y="1" width="282" height="179" rx="12.76" ry="12.76"/>
  <polygon class="cls-5" points="176.33 78.7 182.64 66.31 161.99 66.31 168.37 53.46 155.35 53.46 148.7 66.31 126.03 66.31 101.36 114.69 131.99 114.69 125.34 127.54 138.64 127.54 145.02 114.69 157.97 114.69 164.3 102.27 126.55 102.27 129.71 96.08 167.46 96.08 173.17 84.89 135.42 84.89 138.57 78.7 176.33 78.7"/>
  <g>
    <path class="cls-2" d="m48.56,139.43c-6.92-11.2-11.14-23.79-12.61-36.52-1.48-12.74-.19-25.72,3.91-37.66,4.07-11.93,10.97-22.85,20.16-31.18,9.13-8.38,20.62-13.96,32.54-15.79-11.69,3.02-22.18,9.6-29.99,18.34-7.87,8.72-13.17,19.46-15.77,30.64-2.63,11.2-2.57,22.87-.15,33.89,2.41,11.04,7.17,21.42,13.84,30.12l-11.93,8.15Z"/>
    <polygon class="cls-2" points="58.65 115.48 51.5 131.01 35.36 136.65 72.1 153.67 58.65 115.48"/>
  </g>
  <g>
    <path class="cls-2" d="m235.52,32.52c6.92,11.2,11.14,23.79,12.61,36.52,1.48,12.74.19,25.72-3.91,37.66-4.07,11.93-10.97,22.85-20.16,31.18-9.13,8.38-20.62,13.96-32.54,15.79,11.69-3.02,22.18-9.6,29.99-18.34,7.87-8.72,13.17-19.46,15.77-30.64,2.63-11.2,2.57-22.87.15-33.89-2.41-11.04-7.17-21.42-13.84-30.12l11.93-8.15Z"/>
    <polygon class="cls-2" points="225.42 56.48 232.57 40.95 248.72 35.31 211.98 18.28 225.42 56.48"/>
  </g>
  <rect class="cls-1" x="35.01" y="63.31" width="36.52" height="27.19" rx="6.01" ry="6.01"/>
  <polyline class="cls-3" points="46.27 63.34 46.27 71.74 46.27 80.42 46.27 90.47"/>
  <line class="cls-3" x1="46.27" y1="80.42" x2="35.01" y2="80.42"/>
  <line class="cls-3" x1="46.27" y1="72.19" x2="35.01" y2="72.19"/>
  <polyline class="cls-3" points="59.42 71.74 59.42 77.54 59.42 83.53 59.42 90.47"/>
  <line class="cls-3" x1="70.68" y1="72.19" x2="59.42" y2="72.19"/>
  <line class="cls-3" x1="70.68" y1="80.42" x2="59.42" y2="80.42"/>
</svg>