<?xml version="1.0" encoding="UTF-8"?>
<svg id="Layer_1" data-name="Layer 1" xmlns="http://www.w3.org/2000/svg" viewBox="18 0 195.48 95.17">
  <defs>
    <style>
      .cls-1 {
        fill: #9aca3c;
        stroke: #231f20;
        stroke-miterlimit: 10;
        stroke-width: 3px;
      }
    </style>
  </defs>
  <path class="cls-1" d="m104.02,70v-31.89c-.01-.67-.83-1.21-1.83-1.21h-8.71c-1.45,0-2.32-1.07-1.51-1.87l17.82-17.74c.72-.72,2.31-.72,3.03,0l17.86,17.89c.8.8-.07,1.88-1.52,1.88h-8.79c-1.01,0-1.82.55-1.82,1.22l.14,31.72c0,.67-.81,1.21-1.82,1.21h-11.02c-1,0-1.82-.54-1.82-1.2Z" />
  <polygon class="cls-1" points="79.56 37.29 84.71 27.21 67.89 27.21 73.09 16.75 62.48 16.75 57.07 27.21 38.62 27.21 18.53 66.59 43.47 66.59 38.06 77.06 48.88 77.06 54.07 66.59 64.62 66.59 69.77 56.48 39.04 56.48 41.61 51.44 72.34 51.44 76.99 42.33 46.26 42.33 48.83 37.29 79.56 37.29" />
  <path class="cls-1" d="m148.08,70v-31.89c-.01-.67-.83-1.21-1.83-1.21h-8.71c-1.45,0-2.32-1.07-1.51-1.87l17.82-17.74c.72-.72,2.31-.72,3.03,0l17.86,17.89c.8.8-.07,1.88-1.52,1.88h-8.79c-1.01,0-1.82.55-1.82,1.22l.14,31.72c0,.67-.81,1.21-1.82,1.21h-11.02c-1,0-1.82-.54-1.82-1.2Z" />
</svg>
