<?xml version="1.0" encoding="UTF-8"?>
<svg id="Layer_1" data-name="Layer 1" xmlns="http://www.w3.org/2000/svg" xmlns:xlink="http://www.w3.org/1999/xlink" viewBox="0 0 195.48 95.17">
  <defs>
    <style>
      .cls-1 {
        fill: url(#linear-gradient-2);
      }

      .cls-1, .cls-2, .cls-3 {
        stroke: #231f20;
        stroke-miterlimit: 10;
        stroke-width: 3px;
      }

      .cls-2 {
        fill: url(#linear-gradient-3);
      }

      .cls-3 {
        fill: url(#linear-gradient);
      }
    </style>
    <linearGradient id="linear-gradient" x1="149.58" y1="16.75" x2="149.58" y2="77.06" gradientUnits="userSpaceOnUse">
      <stop offset="0" stop-color="#9aca3c" />
      <stop offset="1" stop-color="#d5364b" />
    </linearGradient>
    <linearGradient id="linear-gradient-2" x1="11.93" y1="45.9" x2="56.95" y2="45.9" gradientUnits="userSpaceOnUse">
      <stop offset="0" stop-color="#9aca3c" />
      <stop offset=".69" stop-color="#d5364b" />
    </linearGradient>
    <linearGradient id="linear-gradient-3" x1="66.67" y1="45.69" x2="111.69" y2="45.69" xlink:href="#linear-gradient-2" />
  </defs>
  <polygon class="cls-3" points="177.52 37.29 182.67 27.21 165.86 27.21 171.05 16.75 160.45 16.75 155.04 27.21 136.58 27.21 116.49 66.59 141.43 66.59 136.02 77.06 146.84 77.06 152.04 66.59 162.58 66.59 167.73 56.48 137 56.48 139.57 51.44 170.31 51.44 174.95 42.33 144.22 42.33 146.79 37.29 177.52 37.29" />
  <rect class="cls-1" x="11.93" y="40.33" width="45.02" height="11.15" />
  <rect class="cls-2" x="66.67" y="40.12" width="45.02" height="11.15" />
</svg>