<?xml version="1.0" encoding="UTF-8"?>
<svg id="Layer_1" data-name="Layer 1" xmlns="http://www.w3.org/2000/svg" viewBox="30 20 710 150">
  <defs>
    <style>
      .cls-1 {
        fill: #d5364b;
      }

      .cls-2, .cls-3 {
        fill: #231f20;
      }

      .cls-4 {
        fill: #9aca3c;
      }

      .cls-3 {
        stroke: #231f20;
        stroke-miterlimit: 10;
        stroke-width: 4px;
      }
    </style>
  </defs>
  <path class="cls-3" d="m711.68,63.24c-1.55-2.52-4.29-4.06-7.25-4.06h-51.86c-.83,0-1.63.12-2.4.35-.77-.23-1.58-.35-2.4-.35h-46.08c-.28,0-.55.01-.82.04-.42-.06-.85-.1-1.29-.1h-20.16c-1.61,0-3.18.46-4.54,1.31l-8.33,5.26c-.2-.87-.55-1.72-1.03-2.51-1.55-2.52-4.29-4.06-7.25-4.06h-15.35c-3.07,0-5.88,1.65-7.39,4.3-3.11-2.75-7.33-4.27-12.1-4.27h-38.09c-3.2,0-6.12,1.79-7.58,4.64l-1.99,3.89h-4.24v-.22c-.13-4.61-3.9-8.28-8.51-8.28h-18.25c-2.19,0-4.29.84-5.88,2.36l-6.44,6.15h-1.45c.01-1.56-.41-3.12-1.25-4.5-1.55-2.52-4.29-4.06-7.25-4.06h-19.19c-1.88,0-3.72.63-5.21,1.78l-8.76,6.78h-7.94l-.61-2.27c-1-3.71-4.37-6.29-8.21-6.29h-19.22c-3.2,0-6.12,1.79-7.58,4.64l-2,3.92h-12.43c0-1.54-.41-3.08-1.24-4.44-1.55-2.52-4.29-4.06-7.25-4.06h-46.08c-1.45,0-2.85.37-4.07,1.04-1.23-.67-2.63-1.04-4.07-1.04h-46.08c-3.04,0-5.84,1.63-7.36,4.24-3.11-2.75-7.33-4.27-12.1-4.27h-38.09c-.77,0-1.53.11-2.26.31-.69-.18-1.42-.28-2.15-.28h-48.02c-3.2,0-6.12,1.79-7.58,4.64l-20.09,39.38c-.8,1.57-1.08,3.31-.85,5-1.5.8-2.75,2.05-3.55,3.62l-20.09,39.38c-1.34,2.64-1.22,5.78.32,8.31s4.29,4.06,7.25,4.06h15.35c2.46,0,30.67.64,44.27-.35.76.22,1.56.35,2.38.35h17.29c1.43,0,13.95.04,23.59-.34.75.22,1.54.34,2.33.34h17.29c1.28,0,11.19.03,19.96-.24.54.11,1.08.18,1.64.18h15.35c3.2,0,6.12-1.79,7.58-4.64l1.13-2.21,4.01.04.46,1.26c1.23,3.34,4.42,5.56,7.98,5.56h17.29c3.2,0,6.12-1.79,7.58-4.64l.94-1.85,12.55.12c.21.82.52,1.62.98,2.37,1.55,2.52,4.29,4.06,7.25,4.06h35.29c6.2,0,12.78-2.17,18.79-5.84l9.04.09c.05.14.08.28.13.42,1.29,3.23,4.42,5.34,7.89,5.34h17.29c2.3,0,4.5-.93,6.1-2.58l2.77-2.85,9.18.09c.4.99.97,1.91,1.72,2.7,1.61,1.69,3.83,2.64,6.16,2.64h17.29c2.29,0,4.49-.93,6.09-2.57.7-.72,1.26-1.56,1.66-2.46l6.15.06c.14.29.28.58.45.85,1.55,2.52,4.29,4.06,7.25,4.06h15.35c3.19,0,6.11-1.79,7.57-4.63l6.06.06c1.45,2.78,4.33,4.57,7.52,4.57h17.29c3.05,0,5.84-1.64,7.35-4.26l23.84.23c7.06,4.95,17.17,4.99,21.07,5.01,3.73,0,8.49-.41,13.62-1.88,1.49,1.2,3.37,1.88,5.33,1.88h7.68c3.14,0,6-1.73,7.48-4.48l24.64.23c6.98,4.22,16.26,4.24,19.93,4.25h.03c21.36-.04,36.24-8.08,44.23-23.86l1.46-2.87c4.34-8.51,4.72-15.78,1.14-21.63-1.48-2.41-3.46-4.23-5.69-5.61l15.34-21.83h8.38c3.2,0,6.12-1.79,7.58-4.64l6.37-12.48c1.34-2.64,1.22-5.78-.32-8.31Z"/>
  <polygon class="cls-4" points="112.58 67.68 160.59 67.68 154.23 80.16 121.56 80.16 119.11 84.97 147.94 84.97 142.06 96.48 113.24 96.48 107.84 107.06 92.49 107.06 112.58 67.68"/>
  <g>
    <path class="cls-4" d="m160.27,107.03h-15.35l20.09-39.37h37.94c8.16-.09,11.56,6.74,7.29,14.88-1.51,2.96-3.68,5.65-6.48,8.06-2.76,2.37-5.77,4.19-8.96,5.39l2.95,11.04h-16.35l-2.51-9.61h-13.71l-4.9,9.61Z"/>
    <path class="cls-2" d="m171.06,85.88h18.72c.94,0,1.89-.32,2.87-.97s1.74-1.46,2.21-2.37c.96-1.87.22-3.37-1.65-3.37h-18.72l-3.42,6.71Z"/>
  </g>
  <polygon class="cls-4" points="253.71 96.95 222.98 96.95 225.55 91.91 256.28 91.91 260.93 82.8 230.2 82.8 232.77 77.76 263.5 77.76 268.64 67.68 222.56 67.68 202.47 107.06 248.55 107.06 253.71 96.95"/>
  <polygon class="cls-4" points="256.7 107.06 302.78 107.06 307.94 96.95 277.21 96.95 279.78 91.91 310.51 91.91 315.16 82.8 284.42 82.8 287 77.76 317.73 77.76 322.87 67.68 276.79 67.68 256.7 107.06"/>
  <polygon class="cls-4" points="402.42 107 422.51 67.62 403.32 67.62 377.89 87.31 372.59 67.62 353.37 67.62 333.28 107 348.63 107 359.35 85.99 364.01 107 371.69 107 397.79 85.99 387.07 107 402.42 107"/>
  <g>
    <polygon class="cls-4" points="463.03 67.68 464.06 107.06 446.78 107.06 447.11 100.32 427.39 100.32 420.85 107.06 403.56 107.06 444.77 67.68 463.03 67.68"/>
    <polygon class="cls-2" points="447.56 90.71 448.1 79.08 436.75 90.71 447.56 90.71"/>
  </g>
  <g>
    <path class="cls-4" d="m480.6,107.03h-15.35l20.09-39.37h37.94c8.16-.09,11.56,6.74,7.29,14.88-1.51,2.96-3.68,5.65-6.48,8.06-2.76,2.37-5.77,4.19-8.96,5.39l2.95,11.04h-16.35l-2.51-9.61h-13.71l-4.9,9.61Z"/>
    <path class="cls-2" d="m491.39,85.88h18.72c.94,0,1.89-.32,2.87-.97s1.74-1.46,2.21-2.37c.96-1.87.22-3.37-1.65-3.37h-18.72l-3.42,6.71Z"/>
  </g>
  <polygon class="cls-4" points="579.49 107 569.11 87.31 599.58 67.62 579.42 67.62 558.12 81.07 551.41 81.07 558.27 67.62 542.92 67.62 522.83 107 538.18 107 545.04 93.55 551.75 93.55 559.33 107 579.49 107"/>
  <polygon class="cls-4" points="581.6 107.06 627.68 107.06 632.84 96.95 602.11 96.95 604.68 91.91 635.41 91.91 640.06 82.8 609.33 82.8 611.9 77.76 642.63 77.76 647.77 67.68 601.69 67.68 581.6 107.06"/>
  <polygon class="cls-4" points="650.74 107.06 666.09 107.06 679.81 80.16 698.06 80.16 704.43 67.68 652.58 67.68 646.21 80.16 664.46 80.16 650.74 107.06"/>
  <polygon class="cls-1" points="68 155.06 83.35 155.06 88.75 144.48 117.58 144.48 123.45 132.97 94.62 132.97 97.07 128.16 129.74 128.16 136.11 115.68 88.09 115.68 68 155.06"/>
  <g>
    <polygon class="cls-1" points="189.46 115.68 190.5 155.06 173.21 155.06 173.55 148.32 153.83 148.32 147.29 155.06 130 155.06 171.21 115.68 189.46 115.68"/>
    <polygon class="cls-2" points="174 138.71 174.54 127.08 163.19 138.71 174 138.71"/>
  </g>
  <polygon class="cls-1" points="259.96 136.48 253.31 115.62 232.19 115.62 212.1 155 227.45 155 239.72 130.95 248.6 155 265.89 155 285.98 115.62 270.6 115.62 259.96 136.48"/>
  <g>
    <path class="cls-1" d="m359.03,135.37c-5.37,10.69-18.06,19.83-28.79,19.69h-35.04l20.09-39.37h35.04c10.89-.15,14.28,8.94,8.71,19.69Z"/>
    <path class="cls-2" d="m343.65,135.37c2.03-3.98,1.42-7.21-2.56-7.21h-16.82l-7.35,14.41h16.82c3.98,0,7.9-3.25,9.92-7.21Z"/>
  </g>
  <g>
    <polygon class="cls-1" points="425.8 115.68 426.84 155.06 409.55 155.06 409.88 148.32 390.17 148.32 383.62 155.06 366.34 155.06 407.55 115.68 425.8 115.68"/>
    <polygon class="cls-2" points="410.33 138.71 410.88 127.08 399.52 138.71 410.33 138.71"/>
  </g>
  <polygon class="cls-1" points="496.29 136.48 489.65 115.62 468.53 115.62 448.44 155 463.79 155 476.06 130.95 484.94 155 502.23 155 522.31 115.62 506.93 115.62 496.29 136.48"/>
  <path class="cls-1" d="m569.19,127.14c2.26,0,4.19.23,5.76.7s2.54,1.35,2.83,2.67h16.32c4.46-12.13-4.89-15.85-18.54-15.85-14.84.03-29.15,4.31-36.7,19.22l-1.46,2.87c-7.65,14.88,2.3,19.16,17.09,19.22,6.68,0,14.45-1.61,21.32-6.12l-2.36,6.12h7.68l11.52-22.59h-26.75l-3.44,6.74h12.36c-3.84,2.99-7.89,3.34-13.95,3.34-6.25-.09-11.02-1.2-7.63-7.68l.49-.97c3.19-6.42,9.12-7.59,15.46-7.68Z"/>
  <g>
    <path class="cls-1" d="m671.31,133.88l-1.46,2.87c-7.53,14.88-21.86,19.19-36.67,19.22-14.81-.03-24.74-4.34-17.09-19.22l1.46-2.87c7.55-14.91,21.86-19.19,36.7-19.22,14.82,0,24.65,4.34,17.06,19.22Z"/>
    <path class="cls-2" d="m655.48,134.81c3.36-6.42-1.37-7.59-7.6-7.68-6.34.09-12.27,1.26-15.46,7.68l-.49.97c-3.38,6.45,1.36,7.62,7.61,7.71,6.31-.09,12.24-1.26,15.44-7.71l.49-.97Z"/>
  </g>
  <g>
    <path class="cls-2" d="m36.22,133.05c1.51-13.08,6.01-25.57,12.74-36.47,6.73-10.92,15.79-20.3,26.41-27.13,10.59-6.84,22.77-11.13,35.14-11.98,12.36-.91,24.83,1.83,35.33,7.78-11.05-4.87-23.35-6.21-34.9-4.19-11.58,1.97-22.39,7.11-31.37,14.27-9.01,7.16-16.2,16.35-21.13,26.5-4.95,10.16-7.65,21.25-7.8,32.21l-14.42-1Z"/>
    <polygon class="cls-2" points="58.99 120.51 43.75 128.26 27.59 122.68 45.86 158.81 58.99 120.51"/>
  </g>
  <g>
    <path class="cls-2" d="m728.76,90.83c-1.54,13.08-6.05,25.56-12.81,36.45-6.75,10.9-15.83,20.27-26.46,27.08-10.61,6.82-22.79,11.09-35.17,11.91-12.36.89-24.83-1.87-35.31-7.84,11.04,4.9,23.34,6.26,34.89,4.26,11.58-1.95,22.4-7.07,31.4-14.21,9.02-7.15,16.23-16.32,21.18-26.46,4.97-10.15,7.69-21.23,7.87-32.2l14.41,1.02Z"/>
    <polygon class="cls-2" points="705.96 103.33 721.22 95.6 737.37 101.21 719.16 65.05 705.96 103.33"/>
  </g>
  <g>
    <path class="cls-2" d="m140.65,38.91c1.31.92,1.47,2.29.1,4.23-2.82,4.03-8.52,5.92-16.11,5.92s-11.68-1.3-7.17-7.75h7.56c-1.47,2.06,1,1.97,3.92,2.02,2.84,0,4.41-.46,5.13-1.48.88-1.25.1-1.24-5.84-1.24l2.37-3.38c5.95,0,6.72-.01,7.58-1.24.72-1.02-.31-1.51-3.04-1.5-2.98.04-5.34-.03-6.75,2.03h-7.56c4.52-6.45,10.51-7.75,18.01-7.75s10.66,1.87,7.83,5.92c-1.36,1.94-3.42,3.3-6.02,4.22Z"/>
    <path class="cls-2" d="m152.43,35.7c2.22-3.17,6.92-6.94,16.82-6.94,7.76,0,11.72,1.27,7.26,7.63l-3.21,4.58c-4.45,6.35-10.17,7.62-17.94,7.62h-10.47l3.38-4.82h12.78c1.05,0,3.68-.2,5-2.09l.33-.48-.76.12c-.51.09-1.43.17-2.76.26-1.31.09-2.76.1-4.34.03-1.58-.07-3-.3-4.29-.66-1.28-.37-2.13-.96-2.58-1.79-.44-.94-.18-2.09.78-3.46Zm6.56.85c.33.47,1.13.78,2.4.91,1.29.12,2.65.13,4.08.04,1.44-.1,2.53-.22,3.32-.38l.52-.1,1.31-1.89c.24-.35.63-1.48-4.88-1.48-1.18,0-5.23.17-6.62,2.16-.13.19-.26.45-.11.73Z"/>
    <path class="cls-2" d="m208.26,29.26h22.66l-3.47,4.95h-15.11l-1.73,2.48h15.11l-3.13,4.48h-15.11l-1.73,2.48h15.11l-3.48,4.97h-22.66l13.55-19.35Z"/>
    <path class="cls-2" d="m258.04,29.26c5.37-.07,6.19,4.39,2.44,9.68-3.64,5.26-10.73,9.75-15.99,9.68h-17.23l13.55-19.35h17.23Zm-5.71,6.13h-8.27l-4.96,7.08h8.27c1.96,0,4.19-1.6,5.55-3.54,1.37-1.96,1.37-3.54-.59-3.54Z"/>
    <path class="cls-2" d="m282.95,29.23l-13.55,19.35h-7.55l13.55-19.35h7.55Z"/>
    <path class="cls-2" d="m311.73,29.23h7.56l-13.55,19.35h-8.5l-2.12-11.82-8.28,11.82h-7.55l13.55-19.35h10.39l1.32,10.25,7.18-10.25Z"/>
    <path class="cls-2" d="m345.62,43.42c-2.33,3.38-6.45,5.2-9.77,5.2h-19.84l13.55-19.35h18.41c3.37-.01,4.92,1.81,2.52,5.18-1.3,1.86-3.16,3.28-5.16,4.16,1.7.71,2,2.38.29,4.81Zm-8.68.59c.65,0,1.63-.65,2.09-1.3.45-.65.37-1.3-.27-1.3h-10.16l-1.81,2.59h10.16Zm-3.05-10.15l-1.82,2.61h8.74c.65,0,1.65-.66,2.1-1.31.45-.65.38-1.3-.27-1.3h-8.74Z"/>
    <path class="cls-2" d="m381.82,29.23h7.56l-7.28,10.4c-5.09,7.32-12.56,9.42-19.83,9.43-7.25-.01-11.77-2.12-6.62-9.43l7.28-10.4h7.55l-6.95,9.92c-2.26,3.18-.03,3.73,3.03,3.77,3.11-.04,6.12-.59,8.3-3.77l6.95-9.92Z"/>
    <path class="cls-2" d="m417.31,29.25c4.02-.04,5.06,3.31,2.2,7.31-1.02,1.46-2.33,2.78-3.94,3.96-1.58,1.17-3.23,2.06-4.91,2.65l.42,5.43h-8.04l-.34-4.72h-6.74l-3.31,4.72h-7.55l13.55-19.35h18.65Zm-15.07,5.66l-2.31,3.3h9.2c.46,0,.96-.16,1.5-.47.56-.33.99-.72,1.31-1.17.64-.92.42-1.66-.5-1.66h-9.2Z"/>
    <path class="cls-2" d="m439.36,37.96h13.15l-7.77,11.1h-3.77l1.73-3.01c-3.8,2.22-7.77,3.01-11.05,3.01-7.27-.03-11.76-2.13-6.61-9.45l.99-1.41c5.1-7.33,12.54-9.43,19.84-9.45,6.71,0,10.96,1.83,7.64,7.79h-8.02c-.02-.65-.41-1.08-1.14-1.31s-1.66-.35-2.77-.35c-3.13.04-6.15.62-8.32,3.77l-.33.48c-2.27,3.18-.03,3.73,3.04,3.77,2.98,0,5-.17,7.17-1.64h-6.08l2.32-3.31Z"/>
    <path class="cls-2" d="m466.58,41.98l-4.63,6.61h-7.55l13.55-19.35h7.55l-4.63,6.61h11.34l4.63-6.61h7.56l-13.55,19.35h-7.56l4.63-6.61h-11.34Z"/>
    <path class="cls-2" d="m529.22,36.72c5.21.27,12.54.65,9.13,5.5-3.87,5.53-11.13,6.84-17.93,6.84-6.77-.01-11.83-.84-8.35-6.84h7.91c-.18,1.5,1.54,1.89,3.91,1.89s5.5-.39,6.55-1.89c.59-.85-1.66-.98-4.6-1.12-5.21-.27-12.54-.65-9.14-5.49,3.87-5.53,11.14-6.85,17.94-6.85,6.75.04,11.85.81,8.34,6.85h-7.91c.21-1.53-1.54-1.89-3.91-1.89s-5.47.35-6.55,1.89c-.59.85,1.67.96,4.61,1.11Z"/>
    <path class="cls-2" d="m548.96,48.62l9.25-13.22h-8.97l4.29-6.13h25.5l-4.29,6.13h-8.97l-9.25,13.22h-7.55Z"/>
    <path class="cls-2" d="m606.11,29.25c4.02-.04,5.06,3.31,2.2,7.31-1.02,1.46-2.33,2.78-3.94,3.96-1.58,1.17-3.23,2.06-4.91,2.65l.42,5.43h-8.04l-.34-4.72h-6.74l-3.31,4.72h-7.55l13.55-19.35h18.65Zm-15.07,5.66l-2.31,3.3h9.2c.46,0,.96-.16,1.5-.47.56-.33.99-.72,1.31-1.17.64-.92.42-1.66-.5-1.66h-9.2Z"/>
    <path class="cls-2" d="m621.64,29.26h22.66l-3.47,4.95h-15.11l-1.73,2.48h15.11l-3.14,4.48h-15.11l-1.73,2.48h15.11l-3.48,4.97h-22.66l13.55-19.35Z"/>
    <path class="cls-2" d="m654.19,29.26h22.66l-3.47,4.95h-15.11l-1.73,2.48h15.11l-3.14,4.48h-15.11l-1.73,2.48h15.11l-3.48,4.97h-22.66l13.55-19.35Z"/>
    <path class="cls-2" d="m680.53,48.62l9.25-13.22h-8.97l4.29-6.13h25.5l-4.29,6.13h-8.97l-9.25,13.22h-7.55Z"/>
  </g>
</svg>
