<?xml version="1.0" encoding="UTF-8"?>
<svg id="Layer_1" data-name="Layer 1" xmlns="http://www.w3.org/2000/svg" viewBox="18 0 195.48 95.17">
  <defs>
    <style>
      .cls-1 {
        fill: #d5364b;
        stroke: #231f20;
        stroke-miterlimit: 10;
        stroke-width: 3px;
      }
    </style>
  </defs>
  <polygon class="cls-1" points="171.75 33.41 176.89 23.34 160.08 23.34 165.27 12.87 154.67 12.87 149.26 23.34 130.81 23.34 110.72 62.71 135.65 62.71 130.24 73.18 141.06 73.18 146.26 62.71 156.8 62.71 161.96 52.6 131.23 52.6 133.8 47.56 164.53 47.56 169.18 38.45 138.45 38.45 141.02 33.41 171.75 33.41"/>
  <path class="cls-1" d="m45.54,21.83v31.89c.01.67.83,1.21,1.83,1.21h8.71c1.45,0,2.32,1.07,1.51,1.87l-17.82,17.74c-.72.72-2.31.72-3.03,0l-17.86-17.89c-.8-.8.07-1.88,1.52-1.88h8.79c1.01,0,1.82-.55,1.82-1.22l-.14-31.72c0-.67.81-1.21,1.82-1.21h11.02c1,0,1.82.54,1.82,1.2Z"/>
  <path class="cls-1" d="m89.6,21.83v31.89c.01.67.83,1.21,1.83,1.21h8.71c1.45,0,2.32,1.07,1.51,1.87l-17.82,17.74c-.72.72-2.31.72-3.03,0l-17.86-17.89c-.8-.8.07-1.88,1.52-1.88h8.79c1.01,0,1.82-.55,1.82-1.22l-.14-31.72c0-.67.81-1.21,1.82-1.21h11.02c1,0,1.82.54,1.82,1.2Z"/>
</svg>
